<?xml version="1.0" encoding="iso-8859-1"?>
<!-- Generator: Adobe Illustrator 19.1.0, SVG Export Plug-In . SVG Version: 6.00 Build 0)  -->
<svg version="1.1" id="Capa_1" xmlns="http://www.w3.org/2000/svg" xmlns:xlink="http://www.w3.org/1999/xlink" x="0px" y="0px"
	 viewBox="0 0 64 64" style="enable-background:new 0 0 64 64;" xml:space="preserve">
<g>
	<g>
		<g>
			<path d="M0,35h51c3.309,0,6,2.691,6,6s-2.691,6-6,6s-6-2.691-6-6h-2c0,4.411,3.589,8,8,8s8-3.589,8-8s-3.589-8-8-8H0V35z"/>
			<path d="M0,28h56c4.411,0,8-3.589,8-8s-3.589-8-8-8s-8,3.589-8,8h2c0-3.309,2.691-6,6-6s6,2.691,6,6s-2.691,6-6,6H0V28z"/>
			<path d="M0,42h32c2.206,0,4,1.794,4,4s-1.794,4-4,4s-4-1.794-4-4h-2c0,3.309,2.691,6,6,6s6-2.691,6-6s-2.691-6-6-6H0V42z"/>
		</g>
	</g>
	<g>
	</g>
	<g>
	</g>
	<g>
	</g>
	<g>
	</g>
	<g>
	</g>
	<g>
	</g>
	<g>
	</g>
	<g>
	</g>
	<g>
	</g>
	<g>
	</g>
	<g>
	</g>
	<g>
	</g>
	<g>
	</g>
	<g>
	</g>
	<g>
	</g>
</g>
<g>
</g>
<g>
</g>
<g>
</g>
<g>
</g>
<g>
</g>
<g>
</g>
<g>
</g>
<g>
</g>
<g>
</g>
<g>
</g>
<g>
</g>
<g>
</g>
<g>
</g>
<g>
</g>
<g>
</g>
</svg>
