<?xml version="1.0" encoding="iso-8859-1"?>
<!-- Generator: Adobe Illustrator 19.0.0, SVG Export Plug-In . SVG Version: 6.00 Build 0)  -->
<svg version="1.1" id="Capa_1" xmlns="http://www.w3.org/2000/svg" xmlns:xlink="http://www.w3.org/1999/xlink" x="0px" y="0px"
	 viewBox="0 0 512 512" style="enable-background:new 0 0 512 512;" xml:space="preserve">
<g>
	<g>
		<rect x="312.163" y="404.898" width="15.673" height="15.673"/>
	</g>
</g>
<g>
	<g>
		<rect x="249.469" y="404.898" width="15.673" height="15.673"/>
	</g>
</g>
<g>
	<g>
		<rect x="374.857" y="404.898" width="15.674" height="15.673"/>
	</g>
</g>
<g>
	<g>
		<rect x="186.776" y="404.898" width="15.673" height="15.673"/>
	</g>
</g>
<g>
	<g>
		<path d="M296.79,0h-16.272L110.826,146.286h169.99v96.653h15.673v-96.653h169.99L296.79,0z M153.012,130.612l109.449-94.353
			l-56.612,94.353H153.012z M280.816,130.612h-56.69l56.69-94.483V130.612z M296.49,130.612V36.129l56.69,94.483H296.49z
			 M314.846,36.259l109.449,94.353h-52.837L314.846,36.259z"/>
	</g>
</g>
<g>
	<g>
		<path d="M453.226,305.633h-15.673v138.449h-0.001h-44.408c-16.028,0-29.488,11.165-33.037,26.122h-8.759v15.673h8.759
			C363.655,500.835,377.115,512,393.143,512c16.028,0,29.488-11.165,33.036-26.122h8.759v-15.673h-8.759
			c-0.892-3.763-2.412-7.284-4.443-10.449h31.489V305.633z M393.142,459.755c7.277,0,13.555,4.282,16.497,10.449h-32.993
			C379.588,464.037,385.866,459.755,393.142,459.755z M393.143,496.327c-7.276,0-13.554-4.282-16.496-10.449h32.993
			C406.697,492.045,400.419,496.327,393.143,496.327z"/>
	</g>
</g>
<g>
	<g>
		<path d="M479.347,292.571V256h-26.122v-26.122H318.433V256H188.6l-31.347-52.245h-34.216v-13.061H32.653v41.796h90.384v-13.061
			h25.342L170.322,256H97.959v36.571h26.122v167.184h31.488c-2.031,3.165-3.551,6.686-4.443,10.449h-8.759v15.673h8.759
			C154.675,500.835,168.136,512,184.163,512s29.488-11.165,33.037-26.122h8.759v-15.673H217.2
			c-0.892-3.763-2.412-7.284-4.443-10.449H320v-15.674H139.755v-151.51H479.347z M107.363,216.816H48.327v-10.449h59.037V216.816z
			 M184.163,496.327c-7.276,0-13.554-4.282-16.496-10.449h32.993C197.718,492.045,191.439,496.327,184.163,496.327z
			 M184.162,459.755c7.277,0,13.555,4.282,16.497,10.449h-32.993C170.609,464.037,176.887,459.755,184.162,459.755z
			 M334.106,245.551h103.445V256H334.106V245.551z M113.633,276.898v-5.224h350.041v5.224H113.633z"/>
	</g>
</g>
<g>
	<g>
		<rect x="335.673" y="444.082" width="15.673" height="15.674"/>
	</g>
</g>
<g>
	<g>
		<rect x="374.857" y="316.082" width="15.674" height="73.143"/>
	</g>
</g>
<g>
	<g>
		<rect x="312.163" y="316.082" width="15.673" height="73.143"/>
	</g>
</g>
<g>
	<g>
		<rect x="249.469" y="316.082" width="15.673" height="73.143"/>
	</g>
</g>
<g>
	<g>
		<rect x="186.776" y="316.082" width="15.673" height="73.143"/>
	</g>
</g>
<g>
</g>
<g>
</g>
<g>
</g>
<g>
</g>
<g>
</g>
<g>
</g>
<g>
</g>
<g>
</g>
<g>
</g>
<g>
</g>
<g>
</g>
<g>
</g>
<g>
</g>
<g>
</g>
<g>
</g>
</svg>
